<?xml version="1.0" encoding="UTF-8" standalone="no"?>
<!-- Created with Inkscape (http://www.inkscape.org/) -->

<svg
   xmlns:dc="http://purl.org/dc/elements/1.1/"
   xmlns:cc="http://creativecommons.org/ns#"
   xmlns:rdf="http://www.w3.org/1999/02/22-rdf-syntax-ns#"
   xmlns:svg="http://www.w3.org/2000/svg"
   xmlns="http://www.w3.org/2000/svg"
   xmlns:xlink="http://www.w3.org/1999/xlink"
   xmlns:sodipodi="http://sodipodi.sourceforge.net/DTD/sodipodi-0.dtd"
   xmlns:inkscape="http://www.inkscape.org/namespaces/inkscape"
   width="256"
   height="256"
   id="svg2183"
   sodipodi:version="0.32"
   inkscape:version="0.48.5 r10040"
   version="1.0"
   sodipodi:docname="emblem-local-git-repo-dirty.svg"
   inkscape:output_extension="org.inkscape.output.svg.inkscape"
   inkscape:export-filename="D:\Development\SVN\TortoiseSVN\src\Resources\svg\Overlays\TortoiseDeleted.png"
   inkscape:export-xdpi="90"
   inkscape:export-ydpi="90">
  <defs
     id="defs2185">
    <linearGradient
       id="linearGradient3145">
      <stop
         style="stop-color:#f03300;stop-opacity:0.83013701;"
         offset="0"
         id="stop3147" />
      <stop
         style="stop-color:#910000;stop-opacity:1;"
         offset="1"
         id="stop3149" />
    </linearGradient>
    <radialGradient
       inkscape:collect="always"
       xlink:href="#linearGradient3145"
       id="radialGradient3151"
       cx="47.5"
       cy="211.14063"
       fx="47.5"
       fy="211.14063"
       r="47.5"
       gradientTransform="matrix(1.6662189,0,0,1.6662192,0.8546043,-175.80653)"
       gradientUnits="userSpaceOnUse" />
  </defs>
  <sodipodi:namedview
     id="base"
     pagecolor="#ffffff"
     bordercolor="#666666"
     borderopacity="1.0"
     inkscape:pageopacity="0.0"
     inkscape:pageshadow="2"
     inkscape:zoom="0.97227182"
     inkscape:cx="174.73068"
     inkscape:cy="81.31867"
     inkscape:current-layer="layer1"
     showgrid="true"
     inkscape:document-units="px"
     inkscape:grid-bbox="true"
     width="256px"
     height="256px"
     showguides="true"
     inkscape:guide-bbox="true"
     inkscape:window-width="1191"
     inkscape:window-height="701"
     inkscape:window-x="21"
     inkscape:window-y="27"
     inkscape:window-maximized="0" />
  <metadata
     id="metadata2188">
    <rdf:RDF>
      <cc:Work
         rdf:about="">
        <dc:format>image/svg+xml</dc:format>
        <dc:type
           rdf:resource="http://purl.org/dc/dcmitype/StillImage" />
        <dc:title />
      </cc:Work>
    </rdf:RDF>
  </metadata>
  <g
     id="layer1"
     inkscape:label="Layer 1"
     inkscape:groupmode="layer">
    <rect
       style="fill:#ff004f;fill-opacity:1;fill-rule:evenodd;stroke:#000000;stroke-width:0;stroke-linecap:butt;stroke-linejoin:miter;stroke-miterlimit:4;stroke-opacity:1;stroke-dasharray:none"
       id="rect3078"
       width="106.0774"
       height="90.187279"
       x="-37.374809"
       y="128.64658"
       transform="matrix(0.69933831,-0.71479083,0.67022498,0.74215799,0,0)" />
    <path
       style="fill:#6c5353;fill-opacity:1"
       d="m 41.110449,237.5841 -3.85474,-4.16408 -0.32272,-12.3976 c -0.1776,-6.8187 -1.0054,-26.0703 -1.83977,-42.78135 l -1.51704,-30.38377 -7.35907,-1.94414 c -4.04748,-1.06926 -10.26277,-2.58715 -13.81175,-3.37306 l -6.4526999,-1.42895 -1.19239,-4.92561 -1.19239,-4.92561 2.74326,-5.53717 2.74326,-5.53717 L 59.337109,69.484956 C 86.992589,41.599608 113.65892,15.800879 118.59556,12.154437 l 8.97575,-6.6298886 6.96889,4.185027 c 3.83289,2.3017686 10.04097,6.8242436 13.79574,10.0499496 l 6.82682,5.86492 4.79174,-3.232614 4.7917,-3.232618 20.58362,0 20.58359,0 2.52451,3.312336 2.52447,3.312336 0.84214,28.858861 0.84214,28.85885 18.71519,18.838784 c 10.29334,10.36133 19.89959,21.33742 21.34726,24.3913 l 2.63209,5.55251 -3.47218,5.35504 -3.47219,5.35506 -12.10263,1.7343 -12.10264,1.7343 -1.56622,6.7411 -1.56623,6.74108 0.39574,36.91529 0.39573,36.91526 -3.06255,3.98628 -3.06255,3.98628 -31.44981,0 -31.4498,0 -3.81865,-5.88936 -3.81861,-5.88933 0,-21.74501 0,-21.745 -3.85477,-4.16407 -3.85473,-4.16408 -8.23514,5.65685 -8.23513,-5.65685 -3.85475,4.16408 -3.85475,4.16407 0,22.33462 0,22.33461 -4.90605,5.29973 -4.90603,5.29974 -29.261041,0 -29.26103,0 z m 55.98181,-15.92667 c 0.81891,-2.30533 1.50587,-13.93162 1.52651,-25.83622 l 0.0375,-21.64468 1.802191,-2.91565 c 0.99121,-1.60359 11.84007,14.25571 13.84561,11.52262 l 7.41507,-4.58933 8.03901,5.65685 6.49623,-5.65686 5.35803,3.04656 c 2.94692,1.67561 5.65477,1.78732 15.90267,-7.9228 l 2.31643,0.85861 0.0751,22.52389 0.0751,22.52388 2.01232,3.42654 2.01231,3.42652 20.64057,-0.77665 20.64055,-0.77668 1.53017,-44.0972 1.53014,-44.09718 1.62217,-2.83533 1.62217,-2.83535 8.49953,-1.72248 8.49952,-1.72247 0,-2.01749 c 0,-1.1096 -5.24333,-7.17689 -11.65186,-13.48289 -6.40851,-6.30598 -13.60594,-14.506824 -15.99427,-18.224104 l -4.34244,-6.75868 0.37745,-23.47357 0.37746,-23.473574 -3.39409,-2.322066 c -1.86673,-1.277139 -5.79892,-2.340327 -8.73815,-2.362644 l -5.34409,-0.04057 -3.85473,4.164081 -3.85476,4.164077 0,5.193626 0,5.19363 -3.69847,1.53312 -3.69847,1.53313 -6.51531,-4.61157 c -3.58343,-2.53637 -11.37722,-9.452741 -17.3195,-15.369725 l -10.80417,-10.75815 -5.72299,3.816426 c -7.3811,4.922128 -94.516211,92.556263 -94.516211,95.057503 0,1.04201 4.07592,2.9992 9.05758,4.34931 l 9.05758,2.45475 2.26924,9.27454 2.26924,9.27454 -1.38345,32.90011 -1.38346,32.90007 2.40804,4.86055 2.40805,4.86052 20.50193,0 20.50191,0 1.48897,-4.19154 z"
       id="path3036"
       inkscape:connector-curvature="0"
       sodipodi:nodetypes="cccscsscccccsscsscccccccccsscccccccccccccccccccccccccccccccscsscccsccccccccccccccssscccsscccccccsscsssccccccccccc" />
    <g
       transform="matrix(1.7202404,0,0,1.6885965,252.58977,34.732794)"
       id="g3"
       style="fill:#241c1c">
      <path
         style="fill:#241c1c"
         inkscape:connector-curvature="0"
         d="m -27.580631,47.048949 -40.119,-40.1170005 c -2.31,-2.311 -6.057,-2.311 -8.369,0 l -8.33,8.3320005 10.567,10.567 c 2.456,-0.83 5.272,-0.273 7.229,1.685 1.969,1.97 2.521,4.81 1.67,7.275 l 10.186,10.185 c 2.465,-0.85 5.307,-0.3 7.275,1.671 2.75,2.75 2.75,7.206 0,9.958 -2.752,2.751 -7.208,2.751 -9.961,0 -2.068,-2.07 -2.58,-5.11 -1.531,-7.658 l -9.5,-9.499 v 24.997 c 0.67,0.332 1.303,0.774 1.861,1.332 2.75,2.75 2.75,7.206 0,9.959 -2.75,2.749 -7.209,2.749 -9.957,0 -2.75,-2.754 -2.75,-7.21 0,-9.959 0.68,-0.679 1.467,-1.193 2.307,-1.537 v -25.23 c -0.84,-0.344 -1.625,-0.853 -2.307,-1.537 -2.083,-2.082 -2.584,-5.14 -1.516,-7.698 l -10.417,-10.419 -27.509999,27.507 c -2.311,2.313 -2.311,6.06 0,8.371 l 40.120999,40.118 c 2.31,2.311 6.056,2.311 8.369,0 l 39.932,-39.932 c 2.311,-2.311 2.311,-6.06 0,-8.371 z"
         id="path5" />
    </g>
  </g>
</svg>
